<svg width="95" height="87" viewBox="0 0 95 87" fill="none" xmlns="http://www.w3.org/2000/svg">
<g clip-path="url(#clip0_67_523)">
<path d="M79.6218 0.04422H7.23835C3.24117 0.04422 0 3.28338 0 7.28056V86.9265L28.9534 57.9571L79.6218 57.949C83.619 57.949 86.8582 54.7099 86.8602 50.7127V7.28056C86.8602 3.28338 83.619 0.04422 79.6218 0.04422Z" fill="#0056AE"/>
<path d="M93.415 0L93.041 1.3974L92.6871 0H91.5652V2.55956H92.2729V0.749974L92.7475 2.55956H93.3285L93.8091 0.749974V2.55956H94.5028V0H93.415Z" fill="#0056AE"/>
<path d="M88.7563 0.609228H89.639V2.55956H90.3769V0.609228H91.2737V0H88.7563V0.609228Z" fill="#0056AE"/>
<path d="M7.29858 23.961H15.88V26.1727H10.5076V27.8194H15.492V29.9326H10.5076V31.9754H16.0349V34.3219H7.29858V23.959V23.961Z" fill="white"/>
<path d="M18.49 23.961H21.4798L25.3825 29.6933V23.961H28.4005V34.3239H25.3825L21.5019 28.6337V34.3239H18.49V23.961Z" fill="white"/>
<path d="M30.8352 29.1484C30.8352 27.4575 31.3057 26.1405 32.2487 25.1975C33.1917 24.2545 34.5026 23.784 36.1856 23.784C37.8685 23.784 39.2397 24.2465 40.1727 25.1734C41.1056 26.1003 41.5721 27.3972 41.5721 29.064C41.5721 30.2744 41.369 31.2677 40.9609 32.0438C40.5527 32.8199 39.9636 33.4231 39.1935 33.8534C38.4234 34.2837 37.4623 34.5008 36.3122 34.5008C35.1621 34.5008 34.1769 34.3138 33.4109 33.9418C32.6448 33.5699 32.0235 32.9808 31.549 32.1745C31.0725 31.3682 30.8352 30.3609 30.8352 29.1484ZM34.0362 29.1625C34.0362 30.2081 34.2312 30.96 34.6193 31.4165C35.0073 31.8729 35.5361 32.1021 36.2057 32.1021C36.8752 32.1021 37.4261 31.8789 37.8041 31.4305C38.1821 30.9822 38.3691 30.1799 38.3691 29.0198C38.3691 28.0446 38.1721 27.3308 37.778 26.8824C37.3839 26.4321 36.8511 26.2069 36.1775 26.2069C35.5039 26.2069 35.0133 26.4361 34.6233 26.8925C34.2312 27.3489 34.0362 28.1069 34.0362 29.1625Z" fill="white"/>
<path d="M50.7508 23.961H53.9457V30.1357C53.9457 30.7469 53.8512 31.326 53.6602 31.8689C53.4692 32.4117 53.1696 32.8883 52.7635 33.2964C52.3553 33.7046 51.9291 33.9901 51.4807 34.155C50.8594 34.3862 50.1114 34.5008 49.2408 34.5008C48.7361 34.5008 48.1872 34.4646 47.5901 34.3942C46.9929 34.3239 46.4963 34.1831 46.0942 33.974C45.694 33.7649 45.3281 33.4673 44.9943 33.0813C44.6626 32.6952 44.4354 32.2971 44.3127 31.887C44.1157 31.2275 44.0151 30.6444 44.0151 30.1357V23.961H47.2101V30.2825C47.2101 30.8475 47.3669 31.2898 47.6806 31.6075C47.9942 31.9252 48.4285 32.084 48.9855 32.084C49.5424 32.084 49.9687 31.9272 50.2823 31.6135C50.596 31.2999 50.7528 30.8575 50.7528 30.2825V23.961H50.7508Z" fill="white"/>
<path d="M61.9843 30.57V28.4146H66.9325V32.832C65.9855 33.4774 65.1471 33.9177 64.4192 34.151C63.6914 34.3842 62.8268 34.5008 61.8295 34.5008C60.599 34.5008 59.5977 34.2917 58.8215 33.8715C58.0454 33.4512 57.4463 32.8279 57.02 31.9975C56.5937 31.1692 56.3806 30.2161 56.3806 29.1424C56.3806 28.0124 56.6139 27.0272 57.0803 26.1908C57.5468 25.3543 58.2304 24.719 59.1312 24.2867C59.8329 23.9529 60.7779 23.784 61.9662 23.784C63.1545 23.784 63.9668 23.8886 64.5358 24.0957C65.1028 24.3028 65.5753 24.6245 65.9493 25.0608C66.3233 25.4971 66.6048 26.05 66.7938 26.7176L63.7054 27.2685C63.5788 26.8764 63.3616 26.5788 63.058 26.3717C62.7544 26.1646 62.3663 26.0601 61.8958 26.0601C61.1941 26.0601 60.6331 26.3034 60.2169 26.792C59.8007 27.2806 59.5916 28.0506 59.5916 29.1062C59.5916 30.2282 59.8027 31.0284 60.225 31.509C60.6472 31.9895 61.2343 32.2308 61.9883 32.2308C62.3462 32.2308 62.688 32.1785 63.0138 32.076C63.3395 31.9734 63.7115 31.7965 64.1297 31.5451V30.57H61.9883H61.9843Z" fill="white"/>
<path d="M69.5583 23.961H72.7613V27.5882H76.2599V23.961H79.4769V34.3239H76.2599V30.1317H72.7613V34.3239H69.5583V23.961Z" fill="white"/>
</g>
<defs>
<clipPath id="clip0_67_523">
<rect width="94.5027" height="86.9266" fill="white"/>
</clipPath>
</defs>
</svg>
